# xmcd
#
# Track frame offsets: 
#        150
#        14411
#        27888
#        39462
#        51043
#        61080
#        72249
#        82873
#        98567
#        108481
#        120068
#        134727
#        146950
#        156943
#        166654
#        183914
#        202058
#        212227
#        225482
#        241451
#
# Disc length: 3373 seconds
#
# Revision: 0
# Processed by: cddbd v1.5.2PL0 Copyright (c) Steve Scherf et al.
# Submitted via: ExactAudioCopy v1.0b1
#
DISCID=0c0d2b14
DTITLE=John Lee Hooker - Best Of Cd2
DYEAR=2010
DGENRE=Blues
TTITLE0=Boogie Chillen
TTITLE1=Crawling King Snake Blues
TTITLE2=I Love you Honey
TTITLE3=Little Wheel
TTITLE4=I Wanna Walk
TTITLE5=Let's Make |It
TTITLE6=Keep your hands to Yourself
TTITLE7=Landing Blues
TTITLE8=I'm Leaving Baby
TTITLE9=Queen Bee
TTITLE10=Moanin' Blues
TTITLE11=Walkin' the Boogie
TTITLE12=No One Told Me
TTITLE13=Onions
TTITLE14=Process
TTITLE15=Sally mae
TTITLE16=Want Ad Blues
TTITLE17=She Shot Me Down
TTITLE18=Thelma
TTITLE19=What Do You Say
EXTD=
EXTT0=
EXTT1=
EXTT2=
EXTT3=
EXTT4=
EXTT5=
EXTT6=
EXTT7=
EXTT8=
EXTT9=
EXTT10=
EXTT11=
EXTT12=
EXTT13=
EXTT14=
EXTT15=
EXTT16=
EXTT17=
EXTT18=
EXTT19=
PLAYORDER=
